<?xml version="1.0" encoding="UTF-8"?>
<svg width="51px" height="51px" viewBox="0 0 51 51" version="1.1" xmlns="http://www.w3.org/2000/svg" xmlns:xlink="http://www.w3.org/1999/xlink">
    <!-- Generator: Sketch 63.1 (92452) - https://sketch.com -->
    <title>编组 22</title>
    <desc>Created with Sketch.</desc>
    <defs>
        <linearGradient x1="73.8959367%" y1="106.360441%" x2="35.9267625%" y2="0%" id="linearGradient-1">
            <stop stop-color="#FFA520" offset="0%"></stop>
            <stop stop-color="#FFD48E" offset="100%"></stop>
        </linearGradient>
    </defs>
    <g id="工作台" stroke="none" stroke-width="1" fill="none" fill-rule="evenodd">
        <g id="2、工作台-日历交互" transform="translate(-1202.000000, -89.000000)">
            <g id="编组-26" transform="translate(203.000000, 68.000000)">
                <g transform="translate(973.000000, 9.000000)" id="编组-22">
                    <g transform="translate(26.000000, 12.000000)">
                        <circle id="椭圆形" fill="#FEF4E9" cx="25.5" cy="25.5" r="25.5"></circle>
                        <g id="合约" transform="translate(12.000000, 15.000000)">
                            <rect id="矩形" fill="#000000" fill-rule="nonzero" opacity="0" x="0" y="0" width="25" height="23"></rect>
                            <path d="M21.0896613,0.000631864653 L10.8888374,0.000631864653 L10.8888374,7.46443864 C10.8898796,7.69998778 10.7927,7.92623109 10.6187868,8.09314199 C10.4448737,8.2600529 10.2085544,8.35388084 9.96208352,8.35387874 L3,8.35387874 L3,21.1749236 C3,22.1828812 3.85499048,23.0000038 4.90967469,23.0000038 L21.0903144,23.0000038 C21.5971106,23.0009892 22.0834502,22.8090259 22.4418101,22.4665428 C22.8001699,22.1240597 23.0010322,21.6592669 23,21.1749236 L23,1.82570052 C23.0012062,1.34124925 22.8004207,0.876295721 22.4420419,0.53367739 C22.0836631,0.191059059 21.5972241,-0.00098982631 21.0903144,3.83679462e-06 L21.0896613,0.000631864653 Z" id="形状" fill="url(#linearGradient-1)"></path>
                            <path d="M17,18.7995227 C17.000183,18.8526437 16.9727661,18.9036374 16.9237992,18.9412495 C16.8748322,18.9788616 16.8083407,19 16.7389991,19 L8.26169227,19 C8.11743355,19 8.00038163,18.9105664 8,18.800053 L8,17.2004773 C8,17.1473074 8.02757106,17.0963152 8.07664788,17.0587185 C8.12572471,17.0211217 8.19228716,17 8.26169227,17 L16.7216914,17 C16.7910965,17 16.857659,17.0211217 16.9067358,17.0587185 C16.9558126,17.0963152 16.9833837,17.1473074 16.9833837,17.2004773 L17,18.7995227 Z" id="路径" fill="#FFF7F4" fill-rule="nonzero"></path>
                            <path d="M13,14.7995227 C13.0001017,14.8526437 12.9848701,14.9036374 12.9576662,14.9412495 C12.9304623,14.9788616 12.8935226,15 12.8549995,15 L8.1453846,15 C8.06524086,15 8.00021202,14.9105664 8,14.800053 L8,13.2004773 C8,13.1473074 8.01531726,13.0963152 8.04258216,13.0587185 C8.06984706,13.0211217 8.1068262,13 8.1453846,13 L12.8453841,13 C12.8839425,13 12.9209217,13.0211217 12.9481866,13.0587185 C12.9754515,13.0963152 12.9907687,13.1473074 12.9907687,13.2004773 L13,14.7995227 Z" id="路径备份" fill="#FFFFFF" fill-rule="nonzero"></path>
                            <path d="M17,14.7995227 C17.000061,14.8526437 16.990922,14.9036374 16.9745997,14.9412495 C16.9582774,14.9788616 16.9361136,15 16.9129997,15 L14.0872308,15 C14.0391445,15 14.0001272,14.9105664 14,14.800053 L14,13.2004773 C14,13.1473074 14.0091904,13.0963152 14.0255493,13.0587185 C14.0419082,13.0211217 14.0640957,13 14.0872308,13 L16.9072305,13 C16.9303655,13 16.952553,13.0211217 16.9689119,13.0587185 C16.9852709,13.0963152 16.9944612,13.1473074 16.9944612,13.2004773 L17,14.7995227 Z" id="路径备份-2" fill="#FFFFFF" fill-rule="nonzero"></path>
                            <path d="M8.662756,5.99936816 C8.84901072,5.99936816 9,5.86986803 9,5.71012153 L9,0.287528264 C8.9991859,0.170594567 8.91636071,0.0655842921 8.79011583,0.0214257059 C8.66387095,-0.0227328804 8.5190443,0.00264815842 8.4231161,0.0857428348 L2.09997321,5.50521248 C2.00252279,5.58796796 1.97320403,5.71309446 2.02581266,5.82171459 C2.07842129,5.93033473 2.20247972,6.00081557 2.33961313,6 L8.662756,5.99936816 Z" id="路径" fill="#FFA650" fill-rule="nonzero"></path>
                        </g>
                    </g>
                </g>
            </g>
        </g>
    </g>
</svg>